<svg xmlns="http://www.w3.org/2000/svg" width="315" height="239" viewBox="0 0 315 239">
  <g fill="none" fill-rule="evenodd">
    <g fill="#E3E5E9">
      <path d="M255.755 100.29H224.29c-.788 0-1.43-.63-1.43-1.43V55.972c0-.372.153-.743.42-1l17.16-17.156c.27-.286.633-.43 1.014-.43h31.464c.79 0 1.43.63 1.43 1.43V70.27c0 .8-.64 1.43-1.43 1.43-.79 0-1.43-.63-1.43-1.43V40.246h-29.442L225.72 56.572V97.43h30.035c.79 0 1.43.63 1.43 1.43 0 .8-.64 1.43-1.43 1.43"/>
      <path d="M241.454 57.402H224.29c-.788 0-1.43-.63-1.43-1.43 0-.8.642-1.43 1.43-1.43h15.733V38.817c0-.8.64-1.43 1.43-1.43.79 0 1.43.63 1.43 1.43v17.155c0 .8-.64 1.43-1.43 1.43M275.778 100.29c-.372 0-.715-.143-1.004-.4-.283-.287-.426-.658-.426-1.03s.143-.743.426-1c.575-.544 1.462-.544 2.005-.03.285.287.428.658.428 1.03s-.143.743-.43 1c-.285.287-.628.43-1 .43M275.778 94.57h-.003c-.79 0-1.43-.628-1.427-1.428l.006-2.86c0-.686.477-1.258 1.138-1.4l.315-.058c2.906-.543 4.262-1.43 4.262-2.83 0-1.544-1.966-2.86-4.298-2.86-2.24 0-4.164 1.2-4.29 2.717-.063.773-.813 1.373-1.545 1.287-.786-.057-1.37-.743-1.304-1.544.257-3.03 3.326-5.318 7.14-5.318 3.947 0 7.156 2.574 7.156 5.72 0 2.743-1.923 4.573-5.72 5.46l-.002 1.687c-.003.8-.643 1.43-1.43 1.43"/>
      <path stroke="#E3E5E9" d="M284.867 100.324c.26 0 .52.112.7.326l12.892 15.315c.695.688 2.152.744 2.954-.057.4-.403.622-.935.622-1.504 0-.555-.212-1.078-.598-1.477l-15.288-12.86c-.386-.324-.436-.9-.113-1.285 2.054-2.46 3.185-5.58 3.185-8.785 0-7.57-6.158-13.725-13.73-13.725-7.57 0-13.73 6.156-13.73 13.725 0 7.568 6.16 13.724 13.73 13.724 3.205 0 6.327-1.13 8.79-3.183.17-.143.378-.213.585-.213zm15.042 18.036c-1.057 0-2.05-.412-2.798-1.158l-12.375-14.698c-2.667 1.97-5.917 3.047-9.245 3.047-8.58 0-15.56-6.977-15.56-15.553 0-8.577 6.98-15.555 15.56-15.555s15.56 6.978 15.56 15.555c0 3.326-1.076 6.574-3.048 9.24l14.646 12.318c.02.016.038.034.058.053.747.746 1.16 1.74 1.16 2.796 0 1.057-.413 2.05-1.16 2.798-.747.746-1.74 1.158-2.8 1.158z"/>
    </g>
    <g transform="translate(44.986 31.806)">
      <path fill="#FAFAFA" d="M162.39 12.065s-12.244 45.363-3.293 53.74c8.95 8.38 41.412-20.152 41.412-20.152l6.37-1.234 1.592-7.404-17.555-31.532-28.528 6.58z"/>
      <path fill="#E3E5E9" d="M55.958 68l-1.097 5.484 2.196 9.87 74.61-32.902-2.194-12.065L128.375 34M2.194 99.806l5.487 4.388 17.556-7.678V92.13l-2.194-2.195"/>
      <path fill="#E4E6E8" fill-rule="nonzero" d="M99.624 101.736l39.388 74.1c.26.486.866.67 1.36.407l.764-.406c.492-.262.677-.877.423-1.355l-39.39-74.098-2.546 1.352z"/>
      <path fill="#242D54" fill-rule="nonzero" d="M102.915 102.833l39.39 74.1c.257.486.865.67 1.358.407l.765-.407c.492-.26.676-.876.422-1.354l-39.388-74.1-2.547 1.353z"/>
      <path fill="#E4E6E8" fill-rule="nonzero" d="M106.21 100.38l-40.422 75.44c-.262.49-.076 1.097.416 1.36l.763.41c.492.263 1.1.084 1.363-.407l40.42-75.442-2.54-1.36z"/>
      <path fill="#242D54" fill-rule="nonzero" d="M102.918 101.476l-40.422 75.442c-.26.488-.076 1.096.416 1.36l.764.41c.49.262 1.1.082 1.362-.41l40.422-75.44-2.542-1.362z"/>
      <path fill="#242D54" fill-rule="nonzero" d="M102.635 101.067l.07 80.255c0 .55.447.995 1.002.99l.495-.003c.552-.005 1-.466 1-1.007l-.07-80.254-2.497.017z"/>
      <rect width="10.036" height="16.837" x="99.171" y="90.548" fill="#919BA6" fill-rule="nonzero" rx="1.13"/>
      <ellipse cx="104.189" cy="102.157" fill="#FFF" fill-rule="nonzero" rx="2.384" ry="2.383"/>
      <path fill="#919BA6" fill-rule="nonzero" d="M119.685 81.552L93.96 93.162l2.365 5.497 19.054-7.632"/>
      <path fill="#202D55" fill-rule="nonzero" d="M31.17 103.615c-.822-1.094-1.715-2.645-2.504-4.384-.78-1.714-1.344-3.39-1.614-4.737-.123-.61-.164-1.098-.192-1.365L54.745 81.22l-1.36-3.18-29.043 12.4-.276.358c-1.29 1.674-.513 5.545 1.45 9.864 2.03 4.473 4.39 7.607 6.554 7.607h.35l29.16-12.265-1.34-3.19-28.15 11.84c-.26-.23-.575-.584-.92-1.04zM190.232 27.43c-6-13.3-8.355-24.72-4.354-26.524 4.002-1.804 11.007 7.518 17.008 20.818 6 13.3 8.356 24.718 4.354 26.523-4.002 1.804-11.007-7.518-17.008-20.817zm10.025-4.52C195.115 11.513 188.6 2.84 187.064 3.533c-1.535.693.655 11.315 5.797 22.71 5.143 11.395 11.66 20.067 13.194 19.375 1.535-.693-.655-11.316-5.797-22.71z"/>
      <path fill="#202D55" fill-rule="nonzero" d="M185.128 1.304l-56.18 25.41c-5.12 2.3-3.504 14.125 2.385 27.218 5.882 13.08 13.758 22.17 18.88 19.747l55.956-25.262-1.583-3.503L148.6 70.19c-.683.322-2.705-.86-5.223-3.766-2.908-3.357-5.98-8.38-8.537-14.068-2.564-5.7-4.295-11.32-4.896-15.71-.52-3.817-.08-6.13.585-6.428l56.183-25.412-1.585-3.502z"/>
      <path fill="#202D55" fill-rule="nonzero" d="M127.856 31.924L55.18 64.734c-4.508 2.033-3.335 11.948 1.538 22.72 4.875 10.777 11.52 18.223 16.02 16.248l72.537-32.682-1.422-3.154L71.33 100.54c-.58.256-2.278-.69-4.38-3.045-2.43-2.72-4.972-6.81-7.078-11.466-2.105-4.653-3.488-9.258-3.915-12.87-.37-3.124.05-5.004.646-5.273l72.677-32.81-1.424-3.153zM179.874 17.37c-.226-.507-.82-.735-1.327-.508l-30.6 13.673c-.508.226-.737.817-.508 1.33l-.038-.084c.227.508.82.736 1.33.51l30.595-13.67c.507-.228.738-.82.51-1.33l.037.08zM6.423 89.844c.998-.746 2.412-1.554 3.996-2.27 1.556-.703 3.09-1.215 4.322-1.46.624-.125 1.114-.157 1.35-.18l2.88 6.308 2.624-1.198-3.275-7.17-.263-.213c-1.438-1.163-4.945-.466-8.826 1.288-4.017 1.815-6.827 3.917-6.827 5.81v.307l3.124 7.026 2.635-1.17L5.4 90.707c.165-.14.51-.478 1.023-.863z"/>
      <path fill="#202D55" fill-rule="nonzero" d="M4.974 101.08l-.613-1.57 18.772-8.42 1.16 2.6 2.635-1.173-2.34-5.24L.678 98l2.116 5.425 26.357 8.132 4.555-2.072-1.194-2.624-3.557 1.62"/>
    </g>
    <path fill="#202D55" fill-opacity=".1" d="M274.398 0l8.87 6.442-3.388 10.423h-10.964l-3.388-10.423"/>
    <ellipse cx="283.083" cy="34" fill="#202D55" fill-opacity=".1" rx="4.389" ry="4.387"/>
    <ellipse cx="233.708" cy="131.613" fill="#202D55" fill-opacity=".1" rx="3.292" ry="3.29"/>
    <ellipse cx="30.722" cy="149.161" fill="#202D55" fill-opacity=".1" rx="4.389" ry="4.387"/>
    <path fill="#202D55" fill-opacity=".1" d="M314.24 15.513c.97.518.966 1.362 0 1.878l-12.937 6.897c-.973.518-1.76.044-1.76-1.057V9.673c0-1.102.792-1.572 1.76-1.057l12.936 6.897z"/>
    <ellipse cx="20.299" cy="174.935" stroke="#2A3D53" stroke-opacity=".1" stroke-width="5" rx="10.424" ry="10.419"/>
    <ellipse cx="157.483" cy="234.387" fill="#202D55" fill-opacity=".05" rx="157.483" ry="4.387"/>
    <g transform="translate(0 134.903)">
      <rect width="3.17" height="13.161" x="5.547" fill="#202D55" fill-opacity=".1" rx="1.585"/>
      <rect width="3.17" height="13.161" x="5.547" fill="#E4E6E8" transform="rotate(90 7.132 6.58)" rx="1.585"/>
    </g>
    <g transform="translate(208.472 115.16)">
      <rect width="3.17" height="13.161" x="5.547" fill="#202D55" fill-opacity=".1" rx="1.585"/>
      <rect width="3.17" height="13.161" x="5.547" fill="#E4E6E8" transform="rotate(90 7.132 6.58)" rx="1.585"/>
    </g>
  </g>
</svg>
